<svg xmlns="http://www.w3.org/2000/svg" viewBox="0 0 100 100">
  <rect width="100" height="100" rx="22" fill="#0A0A0B"/>
  <g transform="translate(50 50) scale(0.09 -0.09) translate(-389 -344)">
    <path d="M733 405H522Q522 465 490.5 500.0Q459 535 401 535Q334 535 302.5 493.0Q271 451 271 376V312Q271 238 302.5 195.5Q334 153 399 153Q463 153 496.0 186.0Q529 219 529 279H733Q733 138 646.5 63.0Q560 -12 402 -12Q226 -12 135.5 78.0Q45 168 45 344Q45 520 135.5 610.0Q226 700 402 700Q555 700 644.0 623.5Q733 547 733 405Z" fill="#FF6B35"/>
  </g>
</svg>
